<?xml version="1.0" encoding="UTF-8"?>
<svg id="Calque_2" data-name="Calque 2" xmlns="http://www.w3.org/2000/svg" width="623.73" height="622.73" viewBox="0 0 623.73 622.73">
  <g id="fond">
    <rect width="623.73" height="622.73" fill="#fff"/>
  </g>
  <g id="logo">
    <g>
      <path d="M388.4,304.94h0c0,12.3,7.92,23.09,19.56,27.07,34.41,11.76,64.05,30.32,83.37,55.72,17.5,21.56,26.64,46.66,26.64,71.76H105.76c-.04-25.1,9.1-50.21,26.64-71.76,22.9-30.11,60.25-50.6,102.89-61.56v-26.52c-14.23-3.11-27.66-7.68-40.35-13.6-26.8-12.57-48.12-29.56-63.92-50.99-15.84-21.48-24.28-45.71-25.26-72.83h412.21v142.7h-129.57Z"/>
      <path d="M458.89,350.62c.55.55,1.1,1.1,1.62,1.66-.95-.99-1.93-1.97-2.92-2.92.43.39.87.83,1.3,1.26Z"/>
    </g>
  </g>
</svg>