<?xml version="1.0" encoding="UTF-8"?>
<svg id="Calque_2" data-name="Calque 2" xmlns="http://www.w3.org/2000/svg" width="2000" height="623.73" viewBox="0 0 2000 623.73">
  <g id="fond">
    <rect width="2000" height="623.73"/>
  </g>
  <g id="logo">
    <g>
      <g>
        <path d="M552.71,305.93h0c0,12.3,7.92,23.09,19.56,27.07,34.41,11.76,64.05,30.32,83.37,55.72,17.5,21.56,26.64,46.66,26.64,71.76h-412.21c-.04-25.1,9.1-50.21,26.64-71.76,22.9-30.11,60.25-50.6,102.89-61.56v-26.52c-14.23-3.11-27.66-7.68-40.35-13.6-26.8-12.57-48.12-29.56-63.92-50.99-15.84-21.48-24.28-45.71-25.26-72.83h412.21v142.7h-129.57Z" fill="#d30710"/>
        <path d="M623.2,351.62c.55.55,1.1,1.1,1.62,1.66-.95-.99-1.93-1.97-2.92-2.92.43.39.87.83,1.3,1.26Z" fill="#d30710"/>
      </g>
      <g>
        <path d="M852.77,346.41c.86,9.83,5.04,17.29,12.55,22.38,7.5,5.09,16.51,7.63,27.03,7.63s18.89-2.02,25.09-6.08c6.21-4.05,9.31-10.22,9.31-18.5,0-5-1.68-8.84-5.04-11.51-3.36-2.67-7.89-4.7-13.58-6.08-5.69-1.38-11.86-2.59-18.5-3.62-6.64-1.03-13.37-2.33-20.18-3.88-6.82-1.55-13.03-3.79-18.63-6.73-5.61-2.93-10.13-6.99-13.58-12.16-3.45-5.17-5.18-11.9-5.18-20.18,0-7.76,2.37-15.05,7.11-21.86,4.74-6.81,11.51-12.29,20.31-16.43,8.8-4.14,19.06-6.21,30.79-6.21,10.52,0,20.09,2.11,28.72,6.34,8.62,4.23,15.56,10.05,20.83,17.46,5.26,7.42,7.89,16.04,7.89,25.87h-21.47c-.69-9.83-4.53-17.24-11.51-22.25-6.99-5-15.48-7.5-25.48-7.5-11.21,0-19.71,2.33-25.48,6.99-5.78,4.66-8.67,10.52-8.67,17.59,0,5.35,1.72,9.44,5.17,12.29,3.45,2.85,7.98,5.04,13.58,6.6,5.6,1.55,11.81,2.81,18.63,3.75,6.81.95,13.54,2.2,20.18,3.75,6.64,1.55,12.81,3.71,18.5,6.47,5.69,2.76,10.26,6.64,13.71,11.64,3.45,5.01,5.17,11.56,5.17,19.66,0,9.14-2.42,17.03-7.24,23.67-4.83,6.64-11.6,11.77-20.31,15.39-8.71,3.62-19.19,5.43-31.43,5.43-11.38,0-21.6-2.2-30.66-6.6-9.05-4.4-16.26-10.35-21.6-17.85-5.35-7.5-8.19-16-8.54-25.48h22.51Z" fill="#fff"/>
        <polygon points="1086.38 247.31 1038.52 392.19 1005.14 392.19 957.28 247.31 982.65 247.31 1021.85 372.71 1061.02 247.31 1086.38 247.31" fill="#fff"/>
        <polygon points="1139.92 218.1 1139.92 247.31 1176.14 247.31 1176.14 267.25 1139.92 267.25 1139.92 392.19 1116.64 392.19 1116.64 267.25 1100.07 267.25 1100.07 247.31 1116.64 247.31 1116.64 198.15 1180.81 198.15 1180.81 218.1 1139.92 218.1" fill="#fff"/>
        <path d="M1257.9,396.34c-15.01,0-28.03-3.23-39.07-9.7-11.04-6.47-19.62-15.48-25.74-27.03-6.12-11.55-9.18-24.75-9.18-39.58s3.06-28.28,9.18-39.84c6.12-11.55,14.7-20.61,25.74-27.16,11.04-6.55,24.06-9.83,39.07-9.83s28.02,3.28,39.06,9.83c11.04,6.56,19.62,15.61,25.74,27.16,6.12,11.56,9.18,24.83,9.18,39.84s-3.06,28.03-9.18,39.58c-6.12,11.56-14.71,20.57-25.74,27.03-11.04,6.47-24.06,9.7-39.06,9.7ZM1257.9,374.86c10,0,18.71-2.24,26.13-6.72,7.41-4.48,13.19-10.82,17.33-19.01,4.14-8.19,6.21-17.89,6.21-29.1s-2.07-21.22-6.21-29.49c-4.14-8.28-9.92-14.66-17.33-19.14-7.42-4.48-16.13-6.73-26.13-6.73s-18.76,2.24-26.26,6.73c-7.5,4.49-13.32,10.87-17.46,19.14-4.14,8.28-6.21,18.11-6.21,29.49s2.07,20.92,6.21,29.1c4.14,8.19,9.96,14.53,17.46,19.01,7.5,4.49,16.25,6.72,26.26,6.72Z" fill="#fff"/>
        <path d="M1425.79,243.18v24.07c-10.17,0-18.97,1.47-26.37,4.38-7.44,2.95-13.15,7.76-17.21,14.48-4.06,6.76-6.07,15.88-6.07,27.45v78.62h-23.28v-144.88h23.28v25.44c1.37-3.59,3.2-7.11,5.57-10.56,3.7-5.43,9.09-9.95,16.17-13.58,7.04-3.59,16.39-5.43,27.92-5.43Z" fill="#fff"/>
        <path d="M1545.34,247.31v23.54c-2.08-3.92-4.49-7.47-7.26-10.71-9.67-11.32-23.64-16.96-41.9-16.96-12.94,0-24.33,3.05-34.17,9.2-9.81,6.11-17.46,14.73-22.89,25.87-5.43,11.1-8.16,24.18-8.16,39.2s2.73,27.81,8.16,38.91c5.43,11.14,13.08,19.73,22.89,25.76,9.85,6.04,21.24,9.05,34.17,9.05s23.53-2.69,31.8-8.05c7.44-4.78,13.19-11.14,17.36-19.15v20.45c0,9.67-1.58,17.61-4.67,23.82-3.09,6.22-7.58,10.82-13.44,13.83-5.89,3.02-13.04,4.53-21.49,4.53-12.43,0-22.24-2.37-29.5-7.11-7.22-4.74-11.71-11.79-13.44-21.09h-24.33c1.36,8.12,4.38,15.99,9.05,23.68,4.67,7.65,11.68,13.94,21.09,18.76,9.38,4.81,21.77,7.26,37.12,7.26,12.58,0,23.57-2.48,32.98-7.4,9.38-4.89,16.71-12.11,21.99-21.59,5.25-9.49,7.9-21.02,7.9-34.67v-137.11h-23.28ZM1533.69,355.61c-7.76,9.38-19.4,14.09-34.93,14.09-13.29,0-23.89-4.49-31.84-13.44-7.94-8.98-11.89-21.92-11.89-38.81s3.95-30.15,11.89-39.2c7.94-9.05,18.54-13.58,31.84-13.58,15.52,0,27.16,4.74,34.93,14.23,7.76,9.49,11.64,22.31,11.64,38.55s-3.88,28.75-11.64,38.16Z" fill="#fff"/>
        <path d="M1704.41,346.41c-2.41,7.94-6.93,14.66-13.58,20.19-6.61,5.5-15.81,8.26-27.52,8.26-15.02,0-26.66-4.38-34.93-13.19-8.3-8.8-13.04-20.09-14.23-33.88h-24.33c1.04,13.44,4.71,25.33,11,35.68,6.29,10.35,14.77,18.43,25.48,24.18,10.71,5.78,23.03,8.7,37.01,8.7,11.71,0,22.1-2.12,31.15-6.36,9.05-4.2,16.53-10.03,22.39-17.46,5.86-7.4,9.99-16.13,12.43-26.12h-24.86ZM1614.15,307.35v3.34c.11-1.15.25-2.26.4-3.34h-.4Z" fill="#fff"/>
        <path d="M1729.52,327.8h-115.38v-17.1c.11-1.15.25-2.26.4-3.34h92.34c-.65-6.36-2.16-12.25-4.53-17.61-3.45-7.76-8.44-13.87-15.02-18.36-6.54-4.49-14.55-6.72-24.04-6.72-13.98,0-25.33,4.17-34.03,12.54-8.01,7.69-12.93,17.75-14.73,30.15h-.4v3.34h-24.33c1.37-13.8,5.28-25.73,11.75-35.82,6.47-10.1,15.02-17.89,25.62-23.39,10.6-5.53,22.64-8.3,36.11-8.3,9.81,0,19.01,1.9,27.52,5.71,8.55,3.77,15.92,9.31,22.13,16.53,6.22,7.26,10.78,16.1,13.73,26.52,2.91,10.46,3.88,22.39,2.84,35.86Z" fill="#fff"/>
      </g>
    </g>
  </g>
</svg>